<svg xmlns="http://www.w3.org/2000/svg">
    <symbol fill="none" viewBox="0 0 25 25" id="arrow-right"><defs/><circle cx="12.333" cy="12.333" r="11.333" stroke="#F2F2F2" stroke-width="2"/><path fill="#F2F2F2" d="M18.619 12.863a.75.75 0 000-1.06L13.846 7.03a.75.75 0 10-1.06 1.06l4.242 4.243-4.243 4.243a.75.75 0 001.06 1.06l4.774-4.773zm-12.041.22h11.51v-1.5H6.578v1.5z"/></symbol>
    <symbol viewBox="0 0 512 512" id="email"><defs/><path fill="#fff" d="M467 61H45a45 45 0 00-45 45v300a45 45 0 0045 45h422a45 45 0 0045-45V106a45 45 0 00-45-45zm-6.2 30L257 294.8 51.4 91h409.4zM30 399.8V112l144.5 143.2L30 399.8zM51.2 421l144.6-144.6 50.6 50.3a15 15 0 0021.2 0l49.4-49.5L460.8 421H51.2zM482 399.8L338.2 256 482 112.2v287.6z"/></symbol>
    <symbol viewBox="0 0 32.67 32.67" id="phone"><defs/><path fill="#fff" d="M16.33 0C7.33 0 0 7.33 0 16.33c0 9.01 7.33 16.34 16.33 16.34a1 1 0 100-2.02c-7.9 0-14.31-6.42-14.31-14.31 0-7.9 6.42-14.32 14.31-14.32 7.9 0 14.32 6.42 14.32 14.32 0 3.3-1.76 6.57-4.27 7.95-.91.5-1.9.75-2.96.76a4.73 4.73 0 001.6-1.53c.07-.12.18-.23.23-.36.33-.79.36-1.68.56-2.51.24-1.07-4.66-3.15-5.09-1.82-.15.5-.39 2.05-.7 2.46-.27.36-.95.2-1.37-.17-1.12-.95-2.37-2.35-3.46-3.46a3.97 3.97 0 00-.1-.09l-.08-.1c-1.11-1.08-2.51-2.33-3.46-3.45-.36-.42-.54-1.1-.17-1.37.41-.31 1.97-.55 2.46-.7 1.32-.43-.75-5.33-1.82-5.09-.83.2-1.72.23-2.51.56-.14.05-.24.16-.36.24-2.8 1.77-3.16 6.08-.43 9.29a75.69 75.69 0 003.24 3.57l.1.1.08.1v-.01c1.17 1.11 2.54 2.76 4.78 4.25 4.7 3.14 8.3 2.27 10.43 1.1 3.67-2.02 5.32-6.34 5.32-9.72C32.67 7.33 25.34 0 16.33 0z"/></symbol>
</svg>