<svg xmlns="http://www.w3.org/2000/svg" fill="none" viewBox="0 0 431 127"><defs/><path fill="#fff" d="M125.6 63.6A62.7 62.7 0 110 63.6a62.7 62.7 0 01125.5 0zM153 125V47.3h30.6c9 0 16.2 2.4 21.6 7.1 5.3 4.7 8 11.1 8 19.1 0 8.4-3 14.9-9 19.5-5.8 4.7-13.2 7-22.1 7h-15.5v25H153zm13.6-37.3h16c5 0 9-1.3 12.1-3.9 3-2.6 4.6-6 4.6-10.2 0-4.4-1.5-7.8-4.6-10.2-3-2.4-7-3.7-12.2-3.7h-15.9v28zM227.1 125V47.3h30.7c9 0 16.2 2.4 21.5 7.1 5.3 4.7 8 11.1 8 19.1 0 8.4-3 14.9-8.9 19.5-5.8 4.7-13.2 7-22.2 7h-15.4v25H227zm13.7-37.3h15.9c5 0 9.1-1.3 12.2-3.9 3-2.6 4.5-6 4.5-10.2 0-4.4-1.5-7.8-4.5-10.2-3-2.4-7-3.7-12.2-3.7h-16v28zM299.7 125V66.4h13.5v9a21.3 21.3 0 0118.3-10.2c6.5 0 11.6 2 15.3 6 3.7 4.1 5.5 9.6 5.5 16.5V125H339V91.7c0-4.6-1.1-8.1-3.3-10.5-2.2-2.6-5.2-3.8-9.2-3.8-4 0-7.1 1.3-9.6 3.9a15 15 0 00-3.6 10.6V125h-13.5zM370.1 125V47.3h30.6c9 0 16.3 2.4 21.6 7.1 5.3 4.7 8 11.1 8 19.1 0 8.4-3 14.9-9 19.5-5.8 4.7-13.2 7-22.1 7h-15.4v25H370zm13.7-37.3h15.8c5.1 0 9.2-1.3 12.2-3.9 3-2.6 4.6-6 4.6-10.2 0-4.4-1.5-7.8-4.6-10.2-3-2.4-7-3.7-12.2-3.7h-15.8v28zM159.7 25V3.7h-8V1.2h18.7v2.5h-8V25h-2.7zM188.5 17.3c.2 1.8.9 3.2 2 4.3 1.2 1 2.6 1.5 4.2 1.5 2.1 0 4-.8 5.6-2.5l1.6 1.5a9.4 9.4 0 01-7.2 3.3c-2.5 0-4.6-.8-6.3-2.5a9.1 9.1 0 01-2.5-6.7c0-2.5.8-4.7 2.4-6.5a7.8 7.8 0 016-2.7c2.5 0 4.5 1 6 2.7a10 10 0 012.2 7.6h-14zm0-2.1H200a7.2 7.2 0 00-1.7-4.2 4.8 4.8 0 00-4-1.7c-1.4 0-2.7.5-3.8 1.6a7 7 0 00-1.9 4.3zM228.7 25.4c-1.8 0-3.4-.5-4.7-1.5-1.3-1-2-2.3-2-4a5 5 0 012.1-4.3 9 9 0 015.5-1.5c1.8 0 3.6.2 5.4.7v-.5c0-1.6-.5-2.7-1.4-3.5-.9-.9-2.2-1.3-3.8-1.3-1.7 0-3.5.4-5.4 1.3l-.7-2.2c2.1-1 4.3-1.4 6.3-1.4 2.5 0 4.4.6 5.7 1.9a7 7 0 011.9 5.2V25H235v-2.6c-1.6 2-3.7 3-6.3 3zm.5-2.1c1.6 0 3-.5 4.1-1.4 1.1-.8 1.7-2 1.7-3.4V17c-1.7-.5-3.4-.7-5.1-.7-1.6 0-2.9.3-3.8 1a3 3 0 00-1.4 2.6c0 1 .5 1.9 1.3 2.5.9.6 2 1 3.2 1zM259.4 25V7.4h2.6v3c1.5-2.2 3.4-3.4 5.7-3.4 2.7 0 4.5 1.2 5.7 3.6a7 7 0 016.2-3.6c2 0 3.6.7 4.7 2 1.2 1.2 1.8 3 1.8 5.1V25h-2.6V14.7c0-1.7-.4-3-1.3-3.9-.8-1-1.9-1.4-3.3-1.4s-2.5.5-3.5 1.5c-.9 1-1.4 2.3-1.4 4V25h-2.5V14.7c0-1.7-.4-3-1.3-3.9-.8-1-1.9-1.4-3.3-1.4s-2.5.5-3.5 1.6c-.9 1-1.4 2.4-1.4 4v10h-2.6z"/><path fill="#2975DA" d="M43 41h46.3v51.7h-12V51.2H55v41.5H43V41z"/><path fill="#2975DA" d="M66.6 41H31v10.2h35.6V41z"/></svg>