<svg xmlns="http://www.w3.org/2000/svg" fill="none" viewBox="0 0 82 100"><defs/><g fill="#000" clip-path="url(#clip1)"><path d="M73.2 100c-.3-.5-.8-1-1-1.7l-4.3-8.6-4.2 4.2-1 1c-.5.5-1.1 1-2 .6-.7-.3-.9-1-1-1.8l-2.4-22-.6-5.1c0-.8 0-1.4.8-1.8.7-.4 1.3 0 1.9.5l11.4 11.3 8 8c.6.5 1 1 .7 1.9-.2.8-1 1-1.7 1l-6.3.8-.9.2 3.5 7.2.7 1.6c.7 1.3.6 1.7-.4 2.7h-1.2zm-10.8-9l4.6-4.4c.5-.4 1.1-.7 1.8-.8 2-.4 4-.6 5.6-.8L60.1 70.3 62.4 91z"/><path d="M78.3 15.5H2.9V68c0 2.6 1.3 4 4 4H51.7c.7 0 1.1.5 1.2 1.2 0 .8-.3 1.4-1 1.6H6.8C2.5 75 0 72.3 0 68.1V6.8C0 2.6 2.6 0 6.8 0h67.6c4.2 0 6.8 2.6 6.8 6.8v61.5c0 3.6-2.2 6.2-5.7 6.6-1 .1-1.8-.3-2-1.2-.1-.9.5-1.5 1.6-1.7 2-.3 3.2-1.5 3.2-3.6V16.2v-.7zm0-3V6c-.1-1.8-1.6-3-3.5-3H6.3C4.6 3 3 4 3 5.6v6.8h75.3z"/><path d="M60.9 42.3h1.5c1 0 1.6.7 1.6 1.5s-.6 1.3-1.6 1.4c-1.5 0-1.5 0-1.8 1.6-1.6 9.4-8.6 16-18 17l-.5.2v1.6c-.1 1-.7 1.5-1.5 1.5s-1.4-.6-1.4-1.5V64a20 20 0 01-18.7-18c0-.6-.3-.8-.9-.7a5 5 0 01-.9 0c-.8-.1-1.4-.6-1.5-1.4 0-.8.6-1.4 1.5-1.5h.9l.7-.1c.3-1.4.5-2.8.9-4.1 2.3-7.9 9-13.5 17.2-14.5.5 0 .8-.2.8-.8v-1.3c.2-.7.7-1.2 1.5-1.1.7 0 1.2.4 1.3 1.1v.3c.2 1.7.2 1.7 1.8 2a20.2 20.2 0 0117 18v.5zM39.2 26.6a17 17 0 00-15.7 15.6h3.2c.3-2.4 1.1-4.6 2.5-6.5 1.2-1.7 2.6-3 4.4-4 .7-.5 1.5-.3 2 .4.4.6.2 1.5-.5 2l-.9.6a11 11 0 00-4.5 7.5c1.2.2 2.9-.4 3 1.5 0 2-1.8 1.3-3 1.6.2 4.4 5 9.2 9.5 9.3V53c0-.8.7-1.3 1.5-1.3s1.4.6 1.4 1.7v7.5a17 17 0 0015.6-15.7h-3.1l-.3 1.4c-.9 4-3 7-6.4 9-1 .7-1.8.5-2.2-.3-.5-.7-.3-1.5.6-2l.4-.3a11 11 0 004.6-6.3l.3-1.4c-1.3-.3-2.9.3-3-1.5 0-2 1.8-1.3 3-1.6-.6-4.8-5.1-9.2-9.5-9.3v1.7c-.2.8-.7 1.2-1.5 1.2s-1.3-.5-1.4-1.2v-1.3-6.7zm0 31a14.2 14.2 0 01-12.5-12.3h-3.2C23.2 52.6 32.9 62 39 60.8v-3.1zm2.9-31V29c0 .6.2.8.8 1 4.2.7 7.5 2.9 9.7 6.6 1 1.7 1.5 3.6 2.3 5.6h2.9A17 17 0 0042 26.6zM48.4 6.3h25.3c.8.1 1.2.6 1.2 1.4 0 .8-.4 1.3-1.2 1.5H23.3C22.4 9 22 8.6 22 7.7c0-.8.4-1.3 1.2-1.4h25.2zM8.5 9.2c-1.5 0-2.2-.5-2.2-1.5S7 6.3 8.5 6.3h.7c1 0 1.5.6 1.5 1.4 0 .8-.5 1.4-1.4 1.5h-.8zM16.3 9.2h-.8c-.8-.1-1.4-.7-1.4-1.5 0-.7.6-1.4 1.4-1.4H17c1 0 1.6.6 1.6 1.4 0 .9-.6 1.4-1.6 1.5h-.7z"/></g><defs><clipPath id="clip1"><path fill="#000" d="M0 0h81.2v100H0z"/></clipPath></defs></svg>