<?xml version="1.0" standalone="no"?>
<!DOCTYPE svg PUBLIC "-//W3C//DTD SVG 20010904//EN"
 "http://www.w3.org/TR/2001/REC-SVG-20010904/DTD/svg10.dtd">
<svg version="1.0" xmlns="http://www.w3.org/2000/svg"
 width="1024.000000pt" height="1024.000000pt" viewBox="0 0 1024.000000 1024.000000"
 preserveAspectRatio="xMidYMid meet">
<metadata>
Created by potrace 1.11, written by Peter Selinger 2001-2013
</metadata>
<g transform="translate(0.000000,1024.000000) scale(0.100000,-0.100000)"
fill="#000000" stroke="none">
<path d="M4720 10229 c-410 -33 -828 -118 -1220 -249 -1834 -612 -3173 -2209
-3449 -4115 -41 -281 -46 -364 -46 -745 0 -381 5 -464 46 -745 328 -2270 2153
-4055 4434 -4339 294 -37 730 -48 1016 -26 1085 84 2078 489 2919 1191 162
134 487 460 620 619 623 749 1013 1617 1149 2555 41 281 46 364 46 745 0 381
-5 464 -46 745 -135 936 -529 1810 -1150 2555 -125 151 -432 460 -589 594
-832 710 -1853 1131 -2949 1216 -156 12 -627 11 -781 -1z m1900 -5109 l0
-1530 -415 0 -415 0 0 1215 0 1215 -570 0 -570 0 0 -1215 0 -1215 -415 0 -415
0 0 1215 0 1215 -325 0 -325 0 0 315 0 315 1725 0 1725 0 0 -1530z"/>
</g>
</svg>
