
<svg xmlns="http://www.w3.org/2000/svg" fill="none" viewBox="0 0 100 101"><g fill="#000" clip-path="url(#A)"><path d="M83.77 0c.92.56 1.2 1.37 1.2 2.44l-.03 21.68c-.1.92-.8 1.6-1.65 1.6-.86 0-1.58-.68-1.66-1.6-.02-.3 0-.6 0-.88V3.4H3.4v9.95h72.2c.45 0 .9 0 1.35.08.85.16 1.3.76 1.3 1.6 0 .82-.44 1.42-1.3 1.58-.47.1-.96.08-1.45.08H3.4v64.95h19.97c.45 0 .93.04 1.34.2.7.28 1 .9.93 1.65-.08.77-.53 1.24-1.27 1.42-.28.07-.58.05-.87.05l-21.28.02c-1 0-1.78-.26-2.22-1.22V0h83.77zm-8.82 58.4H58.37v13.2l5.85.44 1.74.2c1.05.15 1.7.9 1.6 1.85s-.87 1.56-1.95 1.47l-5.15-.47-2.1-.1v15.15l6.54-1.2c1.32-.3 2.6-.8 3.9-1.26 1.4-.5 2.3-.27 2.7.77.36 1-.12 1.8-1.46 2.32a36.5 36.5 0 0 1-42.08-11.4 36.63 36.63 0 0 1 .1-45.7c.88-1.1 1.4-1.2 2.7-.72l7.86 2.93a33.7 33.7 0 0 1 6.2-10.18 13 13 0 0 0-.16-.24l-4.8 2.45c-1.53.9-2.95 2-4.42 3.03-.83.57-1.8.45-2.36-.26-.56-.72-.43-1.68.3-2.35l.3-.24c8.36-6.5 17.82-9.33 28.27-7.57 15.5 2.62 25.6 11.73 30.05 26.8 2.26 7.65 1.63 15.32-1.2 22.78-.48 1.23-1.32 1.72-2.32 1.34-.95-.37-1.26-1.32-.78-2.56 1.23-3.18 2-6.45 2.2-9.86v-.6H78.36l-.43 5.1a51.35 51.35 0 0 1-.4 3c-.16 1.05-.94 1.7-1.86 1.58-.95-.12-1.56-.9-1.46-1.96l.7-6.5c.03-.37.03-.76.05-1.22zm-34.2-18.34a53.07 53.07 0 0 0-2.43 14.9H54.9V41.94l-14.16-1.87zm34.07 14.92a52.1 52.1 0 0 0-2.47-15.05c-.36.06-.6.08-.87.14-4 .9-8.06 1.46-12.16 1.55-.8.01-1.04.26-1.04 1.07L58.3 54c0 .3.04.63.07.97h16.45zm-19.9 3.46H38.3c.18 5.16.94 10.14 2.44 14.8L54.9 71.4V58.44zm20.82-19.36a59.9 59.9 0 0 1 2.57 15.9h11.76c-.35-2.08-.6-4.1-1.03-6.08a31.2 31.2 0 0 0-5.48-11.84c-.2-.26-.72-.55-.97-.47-2.27.77-4.5 1.62-6.85 2.5zm-52.4 15.88h11.62a59.8 59.8 0 0 1 2.48-15.92l-6.5-2.38c-.62-.25-.95-.13-1.26.4-1.13 1.93-2.4 3.8-3.36 5.8a30.6 30.6 0 0 0-2.97 12.1zm7 21.94l7.2-2.58a59.4 59.4 0 0 1-2.6-15.91H23.52c-.12 5.38 2.64 13.65 6.83 18.5zm11.57-.43c1.6 4.3 4.25 8.15 7.13 10.54 1.7 1.4 3.58 2.43 5.83 2.78v-15L41.9 76.5zm12.98-52.8c-4.25-.13-10.54 6.22-12.88 13 4.24.97 8.5 1.6 12.88 1.63V23.68zm16.36 13c-2.83-5.93-5.94-11.32-12.9-13.2V38.3c4.35-.07 8.54-.66 12.9-1.65zm-2.83-11.03a34.89 34.89 0 0 1 6.16 10.24l6.16-2.1a32.24 32.24 0 0 0-12.32-8.13zM44.7 87.6a36.5 36.5 0 0 1-6.07-10.11l-6.1 2.1A31.6 31.6 0 0 0 44.7 87.6zm45.65-4.3l4.87 4.92 4 3.98c1.02 1.04 1.02 1.83 0 2.86a524.23 524.23 0 0 1-4 4c-1.24 1.25-1.98 1.25-3.2.02l-7.93-7.94c-.25-.25-.42-.6-.7-1l-3.5 5.16c-.46.68-.98 1.26-1.9 1.12-.94-.14-1.28-.84-1.5-1.7l-5.6-21.3c-.53-2.06.43-3.03 2.48-2.5l21.27 5.66c1.5.4 2.15 1.45 1.53 2.5-.2.35-.56.63-.9.87l-4.93 3.3zm.37-4.34L74.7 74.74l4.22 16.03 2.4-3.58c.97-1.43 1.93-1.52 3.18-.28l8.28 8.28.77.73 2.33-2.33-9.06-9.06c-1.18-1.18-1.07-2.17.3-3.1l3.6-2.46zM55.76 10.02h-19.9c-.36 0-.72.02-1.07-.03-.85-.1-1.35-.6-1.43-1.46a1.55 1.55 0 0 1 1.22-1.74c.35-.1.7-.1 1.07-.1h40.3c.32 0 .65 0 .97.07.84.17 1.4.86 1.37 1.65-.02.85-.64 1.5-1.54 1.6-.35.03-.7.02-1.07.02h-19.9zM11.7 55.06a44.91 44.91 0 0 1 10.33-27.11c.6-.73 1.55-.85 2.27-.32.78.58.9 1.52.28 2.4L20.9 35.3A40.68 40.68 0 0 0 15 55.88c0 .48-.03 1-.2 1.44-.28.75-.92 1.1-1.7 1-.78-.12-1.33-.6-1.4-1.4-.06-.63-.02-1.25-.02-1.86zm78.37-27.78c.57.4 1.06.6 1.37.98a42.38 42.38 0 0 1 6.6 10.95c.42 1 .1 1.93-.77 2.3-.87.4-1.8.04-2.22-.96a46.22 46.22 0 0 0-6.17-10.34c-.32-.4-.38-1.25-.2-1.76.18-.47.86-.75 1.4-1.18zM24.98 8.4a1.64 1.64 0 0 1-1.7 1.61 1.62 1.62 0 0 1-1.6-1.7 1.68 1.68 0 0 1 1.63-1.6c.9 0 1.68.8 1.67 1.7zm-6.66-.03c0 .92-.75 1.66-1.68 1.65-.9-.01-1.6-.68-1.62-1.58-.03-.93.7-1.7 1.6-1.72a1.7 1.7 0 0 1 1.7 1.65zm-6.66-.02c.02.9-.73 1.66-1.66 1.67-.9 0-1.6-.66-1.64-1.56-.03-.93.67-1.7 1.58-1.74a1.7 1.7 0 0 1 1.72 1.63z"/></g><defs><clipPath id="A"><path fill="#000" d="M0 0h100v100H0z"/></clipPath></defs></svg>