<svg xmlns="http://www.w3.org/2000/svg" fill="none" viewBox="0 0 100 117"><defs/><path fill="#000" d="M6.1 116.36c-1.2-.66-1.56-1.69-1.56-3.02.03-22.58.02-45.15 0-67.73 0-.89-.14-1.81-.4-2.67-1.25-4.2-2.57-8.38-3.87-12.57-.65-2.11-.18-2.97 1.96-3.63L87.63.33c2.34-.73 3.12-.32 3.85 2.04l4.16 13.44c.6 1.98.13 2.89-1.86 3.5L23.24 41.13c-.46.14-.9.32-1.3.64H96.78c2.61 0 3.2.59 3.2 3.21 0 22.8-.01 45.6.01 68.41 0 1.35-.35 2.37-1.6 2.97H6.1zm89.47-54.51H9.04v50.08h86.53V61.85zm-75.8-4.58c.27.05.4.1.55.1 4.24 0 8.48.02 12.72-.02.43 0 .93-.3 1.25-.61 3.29-3.25 6.55-6.52 9.81-9.8.2-.2.38-.43.66-.76-.3-.03-.43-.05-.56-.05-4.25 0-8.49-.02-12.73.02a2 2 0 00-1.24.6c-3.3 3.24-6.56 6.51-9.82 9.79-.2.2-.37.43-.63.73zM85.5 46.13c-4.77 0-9.23-.01-13.7.02-.33 0-.73.34-1 .61-3.28 3.26-6.55 6.53-9.81 9.8-.2.2-.36.42-.55.66.16.07.22.13.29.13 4.35.02 8.7.03 13.06.01.27 0 .6-.14.8-.33 3.57-3.55 7.12-7.11 10.9-10.9zm-20.37 0c-4.68 0-9.08-.02-13.46.02-.41 0-.9.35-1.22.67-3.23 3.2-6.44 6.41-9.65 9.63-.23.23-.43.49-.73.81.26.06.4.11.54.11 4.24.01 8.48.03 12.72-.02.45 0 .98-.34 1.33-.67 3.23-3.2 6.44-6.42 9.65-9.63.22-.23.43-.49.82-.93zM41.88 30.8c-.16-.17-.22-.28-.31-.33-4.35-2.3-8.7-4.6-13.06-6.87-.31-.16-.8-.14-1.16-.04-2.43.72-4.85 1.48-7.27 2.23l-5.47 1.69 1.15.65c2.95 1.55 6.02 2.9 8.8 4.71 2.76 1.78 5.3 2.07 8.34.8 2.87-1.18 5.93-1.9 8.98-2.84zM80.67 18.8c-.16-.17-.2-.24-.27-.27a4169.6 4169.6 0 00-13.13-6.95c-.24-.12-.6-.2-.84-.12-4.3 1.3-8.6 2.64-12.9 3.98.08.12.11.2.18.23 4.4 2.34 8.8 4.68 13.23 7 .23.12.59.17.84.1 4.26-1.3 8.52-2.62 12.89-3.97zM34.1 21.46c.22.19.3.28.39.33 4.3 2.28 8.6 4.56 12.94 6.8.37.2.95.16 1.38.04 3.83-1.14 7.66-2.33 11.48-3.51.3-.1.6-.24 1.06-.43-4.61-2.43-9.05-4.78-13.5-7.1-.3-.15-.75-.16-1.08-.06-4.18 1.28-8.36 2.58-12.67 3.93zM91 15.6L87.67 4.88 72.7 9.52c4.7 2.48 9.15 4.83 13.6 7.15.27.14.67.16.97.08 1.2-.33 2.37-.73 3.72-1.15zM24.6 46.55l-.33-.36H9.05v11.19c1.1 0 2.13-.06 3.14.02.88.06 1.47-.27 2.07-.87 2.97-3.03 5.98-6.01 8.99-9 .4-.39.9-.66 1.36-.98zm70.92 10.74V46.12c-.9 0-1.7.07-2.47-.01-1-.1-1.68.29-2.36.99a480.33 480.33 0 01-7.14 7.15c-.96.96-1.98 1.86-2.97 2.78l.17.26h14.77zM8.21 41.22l14.49-4.49c-4.75-2.5-9.22-4.86-13.7-7.2-.18-.1-.45-.16-.64-.1-1.14.33-2.28.7-3.47 1.07l3.32 10.72z"/><path fill="#000" d="M52.2 97.43H21.85c-.42 0-.84.02-1.25-.04a2.2 2.2 0 01-1.99-2.24c.05-1.1.86-1.93 2.04-2.07.41-.05.83-.04 1.25-.04h60.78c.5 0 1 0 1.47.09 1.06.2 1.65.89 1.74 1.96a2.03 2.03 0 01-1.57 2.2 6 6 0 01-1.46.13H52.2zM52.37 75.87h30.45c.38 0 .76-.02 1.13.02 1.13.11 1.95 1 1.95 2.13.01 1.12-.77 2.03-1.9 2.17-.34.04-.68.03-1.02.03H21.62c-.34 0-.68.01-1.02-.03a2.2 2.2 0 01-1.97-2.24c.05-1.1.9-1.97 2.04-2.06.38-.03.76-.02 1.14-.02h30.56z"/></svg>