<svg xmlns="http://www.w3.org/2000/svg" fill="none" viewBox="0 0 100 97"><defs/><g fill="#000" clip-path="url(#clip2)"><path d="M100 22.64c-.55 1.08-1.44 1.4-2.64 1.4-31.57-.03-63.14-.02-94.71-.02-2.06 0-2.65-.6-2.65-2.7V2.59C0 .67.66.02 2.6.02c31.6 0 63.2 0 94.8-.02 1.17 0 2 .39 2.6 1.35v21.29zm-96.07-2.6h92.1V4H3.93v16.05zM100 94.7c-.63 1.08-1.58 1.36-2.79 1.36-19.13-.03-38.26-.02-57.39-.02-2.2 0-2.75-.56-2.75-2.79V74.61c0-2.02.58-2.6 2.63-2.6 19.22 0 38.45.01 57.68-.01 1.2 0 2.09.3 2.62 1.42V94.7zm-3.96-2.61v-16.1H41.06v16.1h54.98zM100 67.95c-.66 1.04-1.61 1.3-2.81 1.3-9.47-.03-18.93-.02-28.4-.02-2.11 0-2.73-.61-2.73-2.72V29.52c0-2.08.65-2.73 2.74-2.73 9.47 0 18.93.02 28.4-.01 1.2 0 2.15.28 2.8 1.33v39.84zm-3.94-37.19H70.04v34.5h26.02v-34.5zM31.84 69.23H3.04c-2.25 0-2.82-.58-2.82-2.83V29.5c0-2.05.64-2.71 2.67-2.71h57.89c2.02 0 2.67.67 2.67 2.7v37.1c0 1.99-.64 2.64-2.62 2.64h-29zm27.64-6.88V30.76H4.2V62.8l.69-.76 11.68-13.52c1.26-1.45 2.37-1.43 3.64.03l6.07 7.02 2.58 2.97.65-.85L40.76 42.7c1.37-1.82 2.6-1.83 3.95-.03l9.6 12.8 5.17 6.88zm-30.75 2.9h27.95l-.28-.5c-2.38-3.17-4.75-6.35-7.17-9.5-.23-.3-.75-.5-1.13-.51-3.32-.04-6.65.08-9.96-.07-1.5-.06-2.13.68-2.78 1.9h1.07c1.72 0 3.46-.07 5.17.05.63.04 1.42.41 1.79.9.98 1.3-.08 2.93-1.86 2.95-2.8.03-5.6 0-8.4.02-.35 0-.85.08-1.03.32-1.12 1.39-2.17 2.84-3.37 4.45zm-2.27-3.49l-8.08-9.36L7.36 65.16c.2.1.26.15.32.15 5.2 0 10.4.02 15.6 0 .26 0 .6-.14.75-.33.82-1.04 1.6-2.11 2.43-3.22zm19.42-11.01l-3.14-4.19-3.13 4.19h6.27zM17.2 72.02h14.45c1.86 0 2.51.65 2.51 2.53v18.94c0 1.85-.69 2.55-2.52 2.55H2.74c-1.83 0-2.52-.7-2.52-2.56V74.54c0-1.87.65-2.52 2.53-2.52H17.2zm13 20.06v-16.1H4.2v16.1H30.2z"/><path d="M40.34 13.63h19.62c.32 0 .65-.02.97.02.88.1 1.54.79 1.66 1.67.12.87-.35 1.73-1.19 2.02-.38.13-.82.18-1.24.18H20.64c-.42 0-.85-.03-1.24-.16a1.87 1.87 0 01-1.24-2.09c.12-.86.8-1.53 1.7-1.62.31-.04.64-.02.97-.02h19.51zM78.3 10.69c.1-2.06 1.28-4 3.67-5.08a5.85 5.85 0 016.63 1 5.81 5.81 0 011.84 6.44c-.25.84-.18 1.38.5 1.9a5 5 0 01.88.92c.59.77.53 1.83-.1 2.5-.66.72-1.96.98-2.53.22-1.2-1.6-2.57-1.4-4.29-1.15-3.5.51-6.62-2.58-6.6-6.75zm3.9.6c.01 1.26 1.03 2.3 2.28 2.33a2.38 2.38 0 002.37-2.35c0-1.29-1.1-2.34-2.4-2.31a2.28 2.28 0 00-2.25 2.33zM68.1 13.63c1.07.02 1.9.87 1.9 1.94 0 1.06-.85 1.93-1.9 1.95a1.95 1.95 0 01-1.95-2.01 1.9 1.9 0 011.95-1.88zM71.67 85.95H56.15c-.35 0-.72.01-1.07-.03a1.9 1.9 0 01-1.65-1.67c-.12-.87.36-1.7 1.19-2.02.27-.1.57-.17.85-.17 10.84-.01 21.67-.02 32.5 0 1.22 0 2 .7 2.1 1.76.1 1.24-.72 2.11-2.1 2.12-2.76.02-5.53.01-8.3.01h-8zM47.9 85.94A1.9 1.9 0 0146 83.99a1.96 1.96 0 011.93-1.93c1.1 0 1.96.91 1.93 2.02a1.89 1.89 0 01-1.97 1.86zM82.9 45.68h-7.99c-1.45 0-2.3-.73-2.3-1.94-.01-1.22.83-1.96 2.27-1.96h16.29c1.4 0 2.32.76 2.33 1.93 0 1.16-.9 1.96-2.3 1.97h-8.3zM83 33.95h8.2c1.4 0 2.31.79 2.3 1.95-.02 1.17-.93 1.95-2.33 1.95H74.88c-1.43 0-2.28-.76-2.27-1.98 0-1.2.84-1.91 2.3-1.91h8.1zM83 49.6l8.4.01c.97 0 1.68.43 2 1.4.26.84.01 1.57-.68 2.06-.37.26-.9.42-1.36.42-5.56.03-11.11.03-16.68.01-1.28 0-2.08-.8-2.07-1.95 0-1.15.82-1.93 2.1-1.94 2.77-.02 5.53 0 8.3 0zM86.82 61.34h-4.59c-1.37-.01-2.2-.75-2.22-1.92-.02-1.2.84-1.97 2.27-1.98h8.88c1.42 0 2.32.77 2.34 1.93.02 1.17-.88 1.96-2.29 1.97h-4.4zM74.48 61.33a1.9 1.9 0 01-1.87-1.95 1.94 1.94 0 011.92-1.93c1.09 0 1.98.93 1.94 2.02a1.93 1.93 0 01-1.99 1.86zM33.78 39.85a6.92 6.92 0 01-6.87 6.91 6.94 6.94 0 01-6.94-6.94 6.91 6.91 0 0113.81.03zm-6.89-2.97c-1.62 0-2.99 1.33-3.02 2.95a3.05 3.05 0 003.05 3.03 3.02 3.02 0 002.96-3.01 3 3 0 00-2.99-2.97z"/></g><defs><clipPath id="clip2"><path fill="#000" d="M0 0h100v96.05H0z"/></clipPath></defs></svg>