<svg xmlns="http://www.w3.org/2000/svg" fill="none" viewBox="0 0 100 99"><defs/><g fill="#000" clip-path="url(#clip0)"><path d="M100 62.5l-9.7.1h-3.9c-.8 0-1 .2-1 1v19.8H37.2c-.7 0-1.4.3-1.9.7L17.6 97.3l-1 .7V83.5H0V14.6h20.8V0H100v62.5zM81 79.1v-60H4.3v60h16.6v10.3l1-.7 11.8-8.9c.6-.5 1.3-.7 2-.7H81zM25.1 14.6h60.3v43.6h10.2V4.4H25.1v10.2z"/><path d="M74.9 45.9V50H10.5v-4.2h64.4zM10.5 35.5v-4.2h64.4v4.2H10.5z"/></g><defs><clipPath id="clip0"><path fill="#000" d="M0 0h100v98H0z"/></clipPath></defs></svg>