<svg xmlns="http://www.w3.org/2000/svg" fill="none" viewBox="0 0 98 100"><defs/><path fill="#000" d="M48.3 100c-3.7-2-7.4-4.1-11.2-6-1-.6-1.3-1.2-1.3-2.3v-4.3c0-.4-.2-.9-.5-1-3.8-2.7-7.7-5.2-11.5-7.7-.3-.2-.9-.2-1.2 0-3 1.5-5.8 3-8.7 4.7a2 2 0 01-2.1 0L1 77.5c-.8-.4-1.1-1-1-1.8V65.1c-.1-.9.2-1.4 1-1.8l9.7-5.6c.5-.3.7-.6.7-1.2v-14c0-.7-.2-1-.8-1.3l-9.4-5.1C.4 35.6 0 35 0 34V23.5c0-.9.3-1.5 1.1-2l10.5-6c1-.5 1.6-.5 2.5 0l10.3 6c.9.5 1.4 1.1 1.3 2.2v2l.9-.5L35 20c.6-.4.7-.7.7-1.4V8.5c0-1 .3-1.7 1.2-2.2L47.4.4c.9-.5 1.6-.5 2.5 0l10.4 6c.8.4 1.2 1 1.2 2v10.3c0 .4.2 1 .5 1.1l9.1 5.8c.1 0 .3 0 .5.2v-2.3c0-.8.4-1.4 1.1-1.8l10.8-6.2c.7-.4 1.3-.4 2 0l10.9 6.2c.6.4 1 1 1 1.7v10.8c0 .9-.5 1.4-1.3 1.8l-9.4 5.2c-.7.3-.9.7-.8 1.4v13.7c0 .7.1 1.2.8 1.5l9.4 5.4c.8.4 1.2 1 1.2 2v10.4c0 1-.3 1.6-1.2 2l-10.5 5.8c-.8.4-1.5.4-2.3 0L75 78.6c-.5-.3-1-.3-1.5 0l-11.1 7.4c-.6.4-.9.8-.8 1.5v4.2c0 1-.4 1.6-1.2 2L49 100h-.8zM14.2 49.4v7.2c0 .3.3.9.6 1l8.7 5c.5.4.9.3 1.3 0l10.4-7.4c.3-.2.6-.7.6-1v-8.7c0-.3-.3-.8-.6-1L23.8 37h-1l-8 4.2c-.5.3-.6.7-.6 1.3v7zm69 .1l-.1-7.1c0-.4-.3-.9-.6-1-2.6-1.6-5.3-3-8-4.4-.2-.2-.7-.1-1 0l-11.4 7.5c-.3.2-.6.6-.6 1v8.7c0 .3.3.8.6 1l10.5 7.4c.3.2.8.2 1.1 0l8.8-4.9c.5-.3.7-.6.6-1.1v-7zM35.7 83.3v-1.5c-.1-1.2.4-2 1.5-2.5l9.3-5.4c.3-.2.7-.7.7-1v-9.6c0-.4-.4-.8-.7-1L38 57.5c-.5-.3-.9-.3-1.3 0a900 900 0 01-10.3 7.3c-.6.4-.7.8-.7 1.5V76c0 .5.1.8.5 1.1l9 6 .6.3zm25.7 0l.5-.2 9.3-6.2c.2-.2.3-.5.3-.8v-10c0-.4-.2-1-.6-1.2l-10.3-7.3c-.5-.4-.9-.4-1.4 0l-8.5 4.6c-.6.3-.8.7-.8 1.3v9.2c0 .6.2 1 .8 1.3l9.3 5.3c1 .6 1.5 1.3 1.4 2.4v1.6zM50 31.5V36c0 .4.3.8.6 1l9 5.2h1l10.6-7c.2-.1.4-.5.4-.8v-4.5c0-.4-.3-1-.6-1.2a707 707 0 00-11.2-7c-.3-.2-.8-.2-1.1 0l-8 4.4c-.4.1-.6.6-.6 1v4.4zm-2.7 0v-4.3c0-.6-.2-1-.7-1.2l-7.8-4.3c-.5-.3-.9-.3-1.3 0l-11.2 7c-.3.3-.6.8-.6 1.1v4.5c0 .3.2.8.5 1L36.8 42c.2.2.7.2 1 0l8.9-5c.3-.2.5-.7.6-1.1v-4.4zm10 49.4l-8.2-4.7c-.3-.1-.8 0-1 .1L43 79.2c-1 .5-2 1-3 1.7l8.2 4.4c.3.2.7.2 1 0l8.1-4.4zM4.2 23c2.3 1.2 4.6 2.3 6.7 3.7 1.4.9 2.5.8 4 0 2-1.4 4.3-2.5 6.6-3.7l-7.8-4.5c-.7-.4-1.1-.4-1.7 0l-3 1.7L4.2 23zM40 44l8.2 4.4h1l8-4.4-8.2-4.8a.8.8 0 00-.7 0L40 44.1zm35.8-21l8.3 4.4c.2.1.6.2.8 0l8-4.4V23l-8-4.6h-.7L75.8 23zM40 7.8l8.2 4.5c.3.1.8 0 1.2-.2 1.7-.8 3.3-1.8 5-2.7l2.9-1.6L49 3.1a.8.8 0 00-.7 0L40 7.8zm53.1 56.9L85 60h-1.1L79 62.9l-3.2 1.9L84 69c.2.1.6.2.8 0l8.2-4.4zm-89 0l8.3 4.4c.3.2.8 0 1.2-.1l6.8-3.8c.3-.1.7-.3 1-.6l-8-4.6c-.3-.1-.7-.2-1 0l-8.2 4.7zM23 25.5l-1 .5c-1.7.9-3.3 2-5.1 2.7-2.1.9-3 2.1-2.6 4.4.2 1.7 0 3.5 0 5.4 2.5-1.3 4.7-2.7 7-3.8 1.4-.6 1.9-1.5 1.8-3-.2-2 0-4 0-6.2zm60.2 13v-7.8c0-.3-.3-.7-.6-.9l-7.3-4-.8-.3v7.7c0 .2.2.6.4.7l8.3 4.6zm0 41.6v-8c0-.2-.4-.5-.6-.7l-7.3-4-.7-.3-.1.3V72c0 1-.3 2.4.2 3.2.5.9 1.8 1.2 2.7 1.7l5.8 3.2zm-68.9 0c2.1-1.1 4-2.4 6-3.2 2.2-1 3.1-2.3 2.8-4.8-.2-1.6 0-3.3 0-5.1-3 1.6-5.7 3-8.4 4.6-.2 0-.4.4-.4.6v7.9zM2.9 25.5l-.1.5v7.2c0 .3.3.7.6.9l3.8 2 4.3 2.4v-8c0-.2-.4-.5-.7-.7L5.5 27l-2.6-1.4zm44.4-2.3v-8c0-.2-.3-.5-.6-.6l-4.4-2.4-3.7-2v6.3c-.2 1.5.3 2.3 1.7 3 2.3 1 4.6 2.4 7 3.7zm38.6 15.1h.3l5.1-2.8c1-.5 2.5-1 3-1.8.6-1 .2-2.4.3-3.6v-4.5h-.4l-8 4.4c-.1 0-.3.3-.3.5v7.8zM50 59.5l8.4-4.6c.2-.1.3-.6.3-.9v-6.7-.8L50.3 51c-.1 0-.3.3-.3.5v8zM11.5 80v-7.5c0-.6-.2-1-.8-1.3l-7-3.8-1-.4v7.7c0 .3.3.6.5.7l8.3 4.6zm27 3.1l.1 7.9c0 .2.3.6.5.7l7.9 4.3h.3c0-1.8-.2-3.6 0-5.4.3-2-.4-3.2-2.4-4l-6.3-3.5zm20.2-73c-2.3 1.2-4.4 2.5-6.6 3.5-1.7.8-2.3 1.8-2.1 3.7.2 1.8 0 3.8 0 5.8l8.3-4.5c.2-.1.4-.5.4-.7v-7.8zm-20 36.3l-.1.4v7.3c0 .3.4.7.7.9l6.3 3.5 1.7.9v-7.8c0-.3-.3-.7-.6-.9L42 48.3l-3.4-1.8zM94.6 67l-8.3 4.5c-.2.2-.4.7-.4 1V80l8.2-4.5c.2-.1.4-.5.4-.7V67zM50 96.3l8.3-4.5c.2-.2.4-.6.4-.9v-3.6-4l-.4.2-7.8 4.3a1 1 0 00-.4.6v8z"/></svg>